<svg width="1440" height="953" fill="none" viewBox="0 0 1440 953" xmlns="http://www.w3.org/2000/svg"><path fill="url(#paint0_linear)" d="M-52 0h1536v586H-52z"/><path fill="url(#paint1_linear)" d="M-52 582h1536v371H-52z"/><path d="M255.491 790.487c5.596-105.979 95.516-190.232 205.628-190.232 6.258 0 12.438.318 18.554.851 24.054-40.339 58.544-73.821 100.027-97.1 41.482-23.28 88.503-35.543 136.369-35.566 47.865-.022 94.899 12.198 136.404 35.44 41.505 23.241 76.027 56.691 100.121 97.008 5.159-.378 10.354-.633 15.612-.633 110.114 0 200.034 84.253 205.624 190.232" fill="#F2F2F2"/><path d="M298.378 775.047c5.596-105.98 95.517-190.232 205.628-190.232 6.258 0 12.438.318 18.554.851 24.054-40.34 58.545-73.821 100.027-97.101S711.091 453.022 758.956 453c47.866-.022 94.9 12.198 136.404 35.439 41.505 23.242 76.028 56.692 100.121 97.009 5.159-.378 10.359-.633 15.609-.633 110.12 0 200.04 84.252 205.63 190.232" stroke="rgba(63, 61, 86, 0.25)" stroke-miterlimit="10"/><path d="M1135.68 354.967c.83-15.514 7.74-30.125 19.3-40.82 11.56-10.694 26.89-16.656 42.83-16.656 1.89 0 3.75.096 5.6.257 7.27-12.188 17.69-22.304 30.22-29.337 12.54-7.034 26.74-10.739 41.21-10.746 14.46-.007 28.67 3.685 41.21 10.708 12.54 7.022 22.97 17.128 30.25 29.309 1.56-.114 3.13-.191 4.72-.191 15.93 0 31.26 5.962 42.82 16.656 11.56 10.695 18.47 25.306 19.3 40.82" fill="#F2F2F2"/><path d="M1148.64 350.302c.83-15.514 7.74-30.125 19.3-40.82 11.56-10.694 26.89-16.656 42.82-16.656 1.9 0 3.76.096 5.61.257 7.27-12.188 17.69-22.304 30.22-29.338 12.53-7.033 26.74-10.738 41.2-10.745 14.47-.007 28.68 3.685 41.22 10.707 12.54 7.023 22.97 17.129 30.25 29.31 1.55-.114 3.12-.191 4.71-.191 15.94 0 31.27 5.962 42.83 16.656 11.56 10.695 18.47 25.306 19.3 40.82" stroke="rgba(63, 61, 86, 0.25)" stroke-miterlimit="10"/><path d="M-2 395.967c1.127-20.992 10.475-40.761 26.116-55.231 15.641-14.47 36.382-22.537 57.946-22.537 2.558 0 5.085.13 7.585.348 9.833-16.491 23.933-30.179 40.891-39.696s36.181-14.53 55.749-14.539c19.567-.009 38.795 4.987 55.762 14.488 16.968 9.501 31.081 23.176 40.93 39.657a87.513 87.513 0 016.383-.258c21.564 0 42.305 8.067 57.946 22.537 15.641 14.47 24.989 34.239 26.116 55.231" fill="#F2F2F2"/><path d="M15.533 389.655c1.127-20.992 10.475-40.761 26.116-55.231 15.64-14.47 36.382-22.537 57.945-22.537a87.6 87.6 0 017.585.347c9.834-16.49 23.934-30.178 40.892-39.695 16.958-9.517 36.181-14.53 55.748-14.539 19.568-.009 38.796 4.987 55.763 14.488s31.08 23.175 40.93 39.657a87.486 87.486 0 016.382-.258c21.564 0 42.305 8.067 57.946 22.537 15.641 14.47 24.989 34.239 26.116 55.231" stroke="rgba(63, 61, 86, 0.25)" stroke-miterlimit="10"/><defs><linearGradient id="paint0_linear" x1="685.6" y1="574.806" x2="685.6" y2="152.341" gradientUnits="userSpaceOnUse"><stop stop-color="#D9D9D9"/><stop offset="1" stop-color="#D9D9D9" stop-opacity="0"/></linearGradient><linearGradient id="paint1_linear" x1="887.2" y1="632.535" x2="887.2" y2="930.506" gradientUnits="userSpaceOnUse"><stop stop-color="#D9D9D9"/><stop offset="1" stop-color="#D9D9D9" stop-opacity="0"/></linearGradient></defs></svg>
