<svg width="426" height="461" viewBox="0 0 426 461" fill="none" xmlns="http://www.w3.org/2000/svg">
<rect width="25.0018" height="210.847" transform="matrix(0.999834 0.0182478 -0.00968902 0.999953 118.043 195)" fill="#F27272"/>
<rect width="25.0018" height="210.847" transform="matrix(0.999838 0.0179714 -0.00983806 0.999952 168.039 195.898)" fill="#F2F272"/>
<rect width="25.0018" height="210.847" transform="matrix(0.999838 0.0179714 -0.00983806 0.999952 218.034 196.797)" fill="#7272F2"/>
<rect width="25.0018" height="210.847" transform="matrix(0.999838 0.0179714 -0.00983806 0.999952 143.041 195.449)" fill="#F2B172"/>
<rect width="25.0018" height="210.847" transform="matrix(0.999838 0.0179714 -0.00983806 0.999952 193.036 196.348)" fill="#72F272"/>
<rect width="25.0018" height="210.847" transform="matrix(0.999838 0.0179714 -0.00983806 0.999952 243.032 197.247)" fill="#8987A1"/>
<rect width="25.0018" height="210.847" transform="matrix(0.999838 0.0179714 -0.00983806 0.999952 268.03 197.714)" fill="#B772F2"/>
<path d="M45.7568 126.503C-9.28267 131.22 -2.98649 197.005 16.7568 204.003C36.5001 211 366.756 223.503 417.256 198.503C435.256 189.592 409.256 144.003 380.256 155.503C354.756 74.0029 336.756 132.503 328.756 89.0029C322.016 52.3549 276.256 3.50294 225.756 3.00294C185.356 2.60294 150.256 43.1696 137.756 63.503C61.2562 64.003 100.796 121.785 45.7568 126.503Z" fill="url(#paint0_linear)" stroke="#8987A1" stroke-width="5"/>
<path d="M165.657 148.52C166.868 146.095 167.436 143.432 167.448 140.766C167.461 138.101 166.846 135.515 165.657 133.239C164.469 130.963 162.744 129.065 160.635 127.715C158.526 126.366 156.098 125.605 153.567 125.5C151.036 125.396 148.479 125.951 146.123 127.116C143.767 128.281 141.685 130.021 140.06 132.182C138.436 134.342 137.32 136.856 136.811 139.501C136.303 142.146 136.417 144.84 137.143 147.345L141.901 147.345C141.418 145.681 141.563 142.004 141.901 140.247C142.239 138.49 142.98 136.82 144.059 135.385C145.138 133.949 146.521 132.793 148.087 132.019C149.652 131.245 151.35 130.876 153.032 130.946C154.714 131.015 156.327 131.521 157.728 132.417C159.129 133.314 160.275 134.575 161.064 136.087C161.854 137.599 162.263 139.317 162.254 141.088C162.246 142.858 161.869 146.909 161.064 148.52L165.657 148.52Z" fill="#4A4A4A"/>
<path d="M273.501 154.337C274.712 151.912 275.279 149.249 275.292 146.584C275.305 143.919 274.689 141.333 273.501 139.057C272.312 136.78 270.587 134.883 268.478 133.533C266.369 132.183 263.942 131.422 261.41 131.318C258.879 131.213 256.322 131.768 253.966 132.934C251.61 134.099 249.528 135.839 247.904 137.999C246.28 140.16 245.164 142.674 244.655 145.318C244.146 147.963 244.26 150.658 244.987 153.163L249.744 153.163C249.262 151.498 249.406 147.822 249.744 146.065C250.082 144.307 250.824 142.637 251.903 141.202C252.982 139.767 254.365 138.611 255.93 137.837C257.495 137.062 259.194 136.694 260.876 136.763C262.557 136.833 264.17 137.338 265.571 138.235C266.972 139.132 268.118 140.392 268.908 141.905C269.698 143.417 270.106 145.135 270.098 146.905C270.09 148.676 269.712 152.726 268.908 154.337L273.501 154.337Z" fill="#4A4A4A"/>
<path d="M220 162H190.5C188.5 173.6 191.5 183 206 184C220.5 185 220 162 220 162Z" fill="#4A4A4A" stroke="#4A4A4A"/>
<path d="M392.084 350.433V326.418H377.799V350.433H360.883V313.285H348.478V285.518H338.328V257H317.276V285.518H307.127V313.285H295.097V279.889H288.331V263.004H284.196V279.889H260.137V386.455H241.717V375.198H230.44V386.455H212.02V350.433H178.939V326.418H164.654V350.433H163.903V396.586H148.866V369.569H130.822V396.586H115.785V313.285H104.132V285.518H61.2775V313.285H50V460H115.785H163.903H212.02H260.137H295.097H360.883H409V350.433H392.084Z" fill="#8987A1"/>
<path d="M163.403 350.433V396.086H149.366V369.569V369.069H148.866H130.822H130.322V369.569V396.086H116.285V313.285V312.785H115.785H104.632V285.518V285.018H104.132H61.2775H60.7775V285.518V312.785H50H49.5V313.285V460V460.5H50H115.785H163.903H212.02H260.137H295.097H360.883H409H409.5V460V350.433V349.933H409H392.584V326.418V325.918H392.084H377.799H377.299V326.418V349.933H361.383V313.285V312.785H360.883H348.978V285.518V285.018H348.478H338.828V257V256.5H338.328H317.276H316.776V257V285.018H307.127H306.627V285.518V312.785H295.597V279.889V279.389H295.097H288.831V263.004V262.504H288.331H284.196H283.696V263.004V279.389H260.137H259.637V279.889V385.955H242.217V375.198V374.698H241.717H230.44H229.94V375.198V385.955H212.52V350.433V349.933H212.02H179.439V326.418V325.918H178.939H164.654H164.154V326.418V349.933H163.903H163.403V350.433Z" stroke="white" stroke-opacity="0.3"/>
<path opacity="0.4" d="M73 322H57V331H73V322Z" fill="white"/>
<path opacity="0.4" d="M92 331H108V322H92V331Z" fill="white"/>
<path opacity="0.4" d="M73 340H57V349H73V340Z" fill="white"/>
<path opacity="0.4" d="M92 349H108V340H92V349Z" fill="white"/>
<path opacity="0.4" d="M73 357H57V366H73V357Z" fill="white"/>
<path opacity="0.4" d="M92 366H108V357H92V366Z" fill="white"/>
<path opacity="0.4" d="M73 375H57V384H73V375Z" fill="white"/>
<path opacity="0.4" d="M92 384H108V375H92V384Z" fill="white"/>
<path opacity="0.4" d="M73 393H57V402H73V393Z" fill="white"/>
<path opacity="0.4" d="M92 402H108V393H92V402Z" fill="white"/>
<path opacity="0.4" d="M73 410H57V419H73V410Z" fill="white"/>
<path opacity="0.4" d="M92 419H108V410H92V419Z" fill="white"/>
<path opacity="0.4" d="M73 428H57V437H73V428Z" fill="white"/>
<path opacity="0.4" d="M92 437H108V428H92V437Z" fill="white"/>
<path opacity="0.4" d="M158 406H121V410H158V406Z" fill="white"/>
<path opacity="0.4" d="M158 412H121V417H158V412Z" fill="white"/>
<path opacity="0.4" d="M158 419H121V424H158V419Z" fill="white"/>
<path opacity="0.4" d="M254 408H218V412H254V408Z" fill="white"/>
<path opacity="0.4" d="M254 415H218V419H254V415Z" fill="white"/>
<path opacity="0.4" d="M254 421H218V426H254V421Z" fill="white"/>
<path opacity="0.4" d="M158 426H121V430H158V426Z" fill="white"/>
<path opacity="0.4" d="M158 433H121V437H158V433Z" fill="white"/>
<path opacity="0.4" d="M158 440H121V444H158V440Z" fill="white"/>
<path opacity="0.4" d="M182 359H172V372H182V359Z" fill="white"/>
<path opacity="0.4" d="M194 372H204V359H194V372Z" fill="white"/>
<path opacity="0.4" d="M182 380H172V393H182V380Z" fill="white"/>
<path opacity="0.4" d="M194 393H204V380H194V393Z" fill="white"/>
<path opacity="0.4" d="M182 401H172V414H182V401Z" fill="white"/>
<path opacity="0.4" d="M194 414H204V401H194V414Z" fill="white"/>
<path opacity="0.4" d="M182 422H172V435H182V422Z" fill="white"/>
<path opacity="0.4" d="M194 435H204V422H194V435Z" fill="white"/>
<path opacity="0.4" d="M274 288H260V306H274V288Z" fill="white"/>
<path opacity="0.4" d="M274 313H260V330H274V313Z" fill="white"/>
<path opacity="0.4" d="M274 338H260V355H274V338Z" fill="white"/>
<path opacity="0.4" d="M274 363H260V380H274V363Z" fill="white"/>
<path opacity="0.4" d="M274 388H260V405H274V388Z" fill="white"/>
<path opacity="0.4" d="M274 412H260V430H274V412Z" fill="white"/>
<path opacity="0.4" d="M353 324H303V338H353V324Z" fill="white"/>
<path opacity="0.4" d="M353 355H303V370H353V355Z" fill="white"/>
<path opacity="0.4" d="M354 387H303V402H354V387Z" fill="white"/>
<path opacity="0.4" d="M354 418H303V433H354V418Z" fill="white"/>
<path opacity="0.4" d="M68 293H61V308H68V293Z" fill="white"/>
<path opacity="0.4" d="M409 359H392V381H409V359Z" fill="white"/>
<path opacity="0.4" d="M409 391H392V412H409V391Z" fill="white"/>
<path opacity="0.4" d="M409 422H392V444H409V422Z" fill="white"/>
<defs>
<linearGradient id="paint0_linear" x1="213.096" y1="3" x2="213.096" y2="216.573" gradientUnits="userSpaceOnUse">
<stop stop-color="#B772F2"/>
<stop offset="1" stop-color="#7272F2"/>
</linearGradient>
</defs>
</svg>
